<svg width="20" height="20" viewBox="0 0 17 21" 
    xmlns="http://www.w3.org/2000/svg">
    <path d="M8.58 20.84a.41.41 0 0 1-.24-.08C8.03 20.53.67 15.15.67 9.16.67 4.43 4.07.85 8.58.85c4.52 0 7.92 3.58 7.92 8.33 0 5.98-7.36 11.36-7.67 11.59a.41.41 0 0 1-.25.08zm0-19.17c-4.04 0-7.08 3.22-7.08 7.5 0 4.97 5.81 9.74 7.08 10.73 1.28-.99 7.09-5.76 7.09-10.73 0-4.28-3.05-7.5-7.09-7.5zm0 11.67a4.59 4.59 0 1 1 .01-9.18 4.59 4.59 0 0 1 0 9.18zm0-8.34a3.75 3.75 0 1 0 .01 7.51 3.75 3.75 0 0 0 0-7.5z" fill="#3E3832" fill-rule="evenodd"/>
</svg>