<?xml version="1.0" encoding="UTF-8"?>
<svg width="17px" height="21px" viewBox="0 0 17 21" version="1.1" xmlns="http://www.w3.org/2000/svg" xmlns:xlink="http://www.w3.org/1999/xlink">
    <!-- Generator: Sketch 55.2 (78181) - https://sketchapp.com -->
    <title>Outline/25-map-location/location-pin-6</title>
    <desc>Created with Sketch.</desc>
    <g id="↳-1" stroke="none" stroke-width="1" fill="none" fill-rule="evenodd">
        <g id="Kurs-detaljside" transform="translate(-919.000000, -530.000000)" fill="#3E3832">
            <g id="Group-6" transform="translate(918.000000, 424.000000)">
                <g id="sted" transform="translate(0.000000, 105.000000)">
                    <g id="Outline/25-map-location/location-pin-6" transform="translate(0.000000, 1.835905)">
                        <path d="M9.58333333,20 C9.4975,20 9.41166666,19.9741667 9.33916666,19.9208334 C9.02666666,19.695 1.66666663,14.3108334 1.66666663,8.33333333 C1.66666663,3.58249997 5.06999998,-4.1666287e-08 9.58333333,-4.1666287e-08 C14.0966667,-4.1666287e-08 17.5,3.58249997 17.5,8.33333333 C17.5,14.3108334 10.14,19.695 9.8275,19.9208334 C9.755,19.9741667 9.66916667,20 9.58333333,20 Z M9.58333333,0.833333295 C5.54499998,0.833333295 2.49999997,4.05749998 2.49999997,8.3333333 C2.49999997,13.3008333 8.30999999,18.0741667 9.58333333,19.0608334 C10.8566667,18.0741667 16.6666667,13.3008333 16.6666667,8.3333333 C16.6666667,4.05749998 13.6216667,0.833333295 9.58333333,0.833333295 Z M9.58333333,12.5 C7.05583332,12.5 4.99999998,10.4433333 4.99999998,7.91666666 C4.99999998,5.38999998 7.05583332,3.33333331 9.58333333,3.33333331 C12.1108333,3.33333331 14.1666667,5.38999998 14.1666667,7.91666666 C14.1666667,10.4433333 12.1108333,12.5 9.58333333,12.5 Z M9.58333333,4.16666664 C7.51583332,4.16666664 5.83333332,5.84916665 5.83333332,7.91666666 C5.83333332,9.98416667 7.51583332,11.6666666 9.58333333,11.6666666 C11.6508333,11.6666666 13.3333333,9.98416667 13.3333333,7.91666666 C13.3333333,5.84916665 11.6508333,4.16666664 9.58333333,4.16666664 Z" id="Combined-Shape"></path>
                    </g>
                </g>
            </g>
        </g>
    </g>
</svg>