<svg width="20px" height="20px" 
    xmlns="http://www.w3.org/2000/svg">
    <path d="M19.98 7.36a.42.42 0 0 0-.4-.28H12.8L10.4.28c-.12-.34-.68-.34-.8 0l-2.4 6.8H.42a.42.42 0 0 0-.26.75l5.6 4.4-2.4 7.22c-.06.17 0 .36.14.47.15.1.35.1.5 0l6-4.4 6 4.4a.41.41 0 0 0 .5 0c.14-.1.2-.3.15-.47l-2.41-7.22 5.6-4.4c.14-.11.2-.3.14-.47zm-6.49 4.4c-.14.1-.2.29-.14.46l2.1 6.25-5.2-3.8a.41.41 0 0 0-.5 0l-5.2 3.8 2.1-6.25a.42.42 0 0 0-.14-.46L1.62 7.92H7.5c.18 0 .33-.12.4-.28L10 1.67l2.1 5.97c.07.16.22.28.4.28h5.88l-4.89 3.84z" fill="#3E3832" fill-rule="evenodd"/>
</svg>